<svg width="512" height="512" viewBox="0 0 512 512" fill="none" xmlns="http://www.w3.org/2000/svg">
  <defs>
    <radialGradient id="sky" cx="0" cy="0" r="1" gradientUnits="userSpaceOnUse" gradientTransform="translate(-8.14286 -14.25) rotate(51.6869) scale(99.5459 90.5437)">
      <stop offset="0.337728" stop-color="#FDB08E"/>
      <stop offset="0.529425" stop-color="#EC6C75"/>
    </radialGradient>
    <linearGradient id="mountain" x1="19.1899" y1="24" x2="23.2892" y2="42.9348" gradientUnits="userSpaceOnUse">
      <stop stop-color="#F6EBDF"/>
      <stop offset="1" stop-color="#EBDAC2"/>
    </linearGradient>
    <linearGradient id="sun" x1="29.4" y1="12.1111" x2="32.3226" y2="22.6326" gradientUnits="userSpaceOnUse">
      <stop stop-color="#FFFEFB"/>
      <stop offset="1" stop-color="#F6EBDF"/>
    </linearGradient>
  </defs>
  <g transform="translate(-85.3333 -85.3333) scale(14.22222)">
    <path d="M6 12.25C6 8.79822 8.79822 6 12.25 6H35.75C39.2018 6 42 8.79822 42 12.25V35.75C42 39.2018 39.2018 42 35.75 42H12.25C8.79822 42 6 39.2018 6 35.75V12.25Z" fill="url(#sky)"/>
    <path d="M40.8346 39.385L26.4748 25.0251C25.1079 23.6583 22.8918 23.6583 21.525 25.0251L7.16504 39.3851C8.29891 40.9683 10.1539 42 12.2498 42H35.7498C37.8457 42 39.7007 40.9683 40.8346 39.385Z" fill="url(#mountain)"/>
    <path d="M27 17C27 14.7909 28.7909 13 31 13C33.2091 13 35 14.7909 35 17C35 19.2091 33.2091 21 31 21C28.7909 21 27 19.2091 27 17Z" fill="url(#sun)"/>
  </g>
</svg>
